<?xml version="1.0" standalone="no"?><!DOCTYPE svg PUBLIC "-//W3C//DTD SVG 1.1//EN" "http://www.w3.org/Graphics/SVG/1.1/DTD/svg11.dtd"><svg t="1593259223804" class="icon" viewBox="0 0 1024 1024" version="1.1" xmlns="http://www.w3.org/2000/svg" p-id="605" xmlns:xlink="http://www.w3.org/1999/xlink" width="200" height="200"><defs><style type="text/css"></style></defs><path d="M473.5 534.2l89.8 89.8 25.6 102.6L832.5 483 730 457.2 473.5 200.8 447.9 98.2 204.3 341.8l102.6 25.6 89.8 89.8-192.4 192.4c-14.2 14.2-14.2 37.1 0 51.3l25.6 25.6c14.2 14.2 37.1 14.2 51.3 0l192.3-192.3zM764.1 837.6H401.5c-25 0-45.3 20.3-45.3 45.3 0 25 20.3 45.3 45.3 45.3h362.6c25 0 45.3-20.3 45.3-45.3 0.1-25-20.2-45.3-45.3-45.3z" p-id="606" fill="#e6e6e6"></path></svg>