<?xml version="1.0" standalone="no"?><!DOCTYPE svg PUBLIC "-//W3C//DTD SVG 1.1//EN" "http://www.w3.org/Graphics/SVG/1.1/DTD/svg11.dtd"><svg t="1593255091723" class="icon" viewBox="0 0 1024 1024" version="1.1" xmlns="http://www.w3.org/2000/svg" p-id="2805" xmlns:xlink="http://www.w3.org/1999/xlink" width="200" height="200"><defs><style type="text/css"></style></defs><path d="M1017.728 239.338667 895.082667 116.693333c-8.341333-8.362667-21.824-8.362667-30.208 0l-500.053333 500.032L159.146667 411.050667c-8.021333-8-22.208-8-30.208 0l-122.666667 122.666667c-8.362667 8.384-8.362667 21.845333 0 30.208l343.445333 343.424c4.16 4.16 9.621333 6.272 15.104 6.272 5.44 0 10.922667-2.112 15.104-6.272l637.802667-637.781333C1026.090667 261.184 1026.090667 247.701333 1017.728 239.338667zM364.821333 862.037333 51.584 548.842667l92.458667-92.48 205.674667 205.674667c8.362667 8.362667 21.845333 8.362667 30.208 0l500.053333-500.032 92.437333 92.437333L364.821333 862.037333z" p-id="2806"></path></svg>