<?xml version="1.0" standalone="no"?><!DOCTYPE svg PUBLIC "-//W3C//DTD SVG 1.1//EN" "http://www.w3.org/Graphics/SVG/1.1/DTD/svg11.dtd"><svg t="1593253773634" class="icon" viewBox="0 0 1024 1024" version="1.1" xmlns="http://www.w3.org/2000/svg" p-id="2082" xmlns:xlink="http://www.w3.org/1999/xlink" width="200" height="200"><defs><style type="text/css"></style></defs><path d="M512 1024C229.888 1024 0 794.112 0 512S229.888 0 512 0s512 229.888 512 512-229.888 512-512 512z m0-972.8c-253.952 0-460.8 206.848-460.8 460.8s206.848 460.8 460.8 460.8 460.8-206.848 460.8-460.8-206.848-460.8-460.8-460.8z" p-id="2083"></path><path d="M420.864 717.312c-6.656 0-13.312-2.56-18.432-7.68L202.24 506.368c-9.728-10.24-9.728-26.112 0.512-36.352s26.112-9.728 36.352 0.512l182.784 185.344 364.544-342.528c10.24-9.728 26.624-9.216 36.352 1.024 9.728 10.24 9.216 26.624-1.024 36.352l-382.976 359.424c-5.632 5.12-11.776 7.168-17.92 7.168z" p-id="2084"></path></svg>