<?xml version="1.0" standalone="no"?><!DOCTYPE svg PUBLIC "-//W3C//DTD SVG 1.1//EN" "http://www.w3.org/Graphics/SVG/1.1/DTD/svg11.dtd"><svg t="1593423392718" class="icon" viewBox="0 0 1024 1024" version="1.1" xmlns="http://www.w3.org/2000/svg" p-id="2499" xmlns:xlink="http://www.w3.org/1999/xlink" width="200" height="200"><defs><style type="text/css"></style></defs><path d="M910.603 824.469h-49.706c-0.727 0-1.445-0.04-2.168-0.055l0.157 0.063-208.73 132.744v6.297c0 32.937-26.701 59.638-59.638 59.638H461.295c-32.938 0-59.639-26.701-59.639-59.638v-29.723c0-32.938 26.701-59.639 59.639-59.639h129.223c22.733 0 42.49 12.722 52.553 31.432l157.168-101.799c-23.553-18.177-38.739-46.666-38.739-78.718V486.804c0-54.896 44.502-99.398 99.397-99.398h49.706a98.993 98.993 0 0 1 41.537 9.098C916.615 194.082 730.425 39.719 506.031 39.719c-226.833 0-414.647 157.73-447.232 363.396 15.469-9.928 33.853-15.709 53.598-15.709h49.706c54.895 0 99.397 44.502 99.397 99.398v238.267c0 54.896-44.502 99.398-99.397 99.398h-49.706C57.502 824.469 13 779.967 13 725.071V486.804c0-6.826 0.69-13.49 2.001-19.929h-0.968C16.832 208.574 238.249 0 510.984 0c272.622 0 493.966 208.4 496.946 466.553a99.785 99.785 0 0 1 2.07 20.251v238.267c0 54.896-44.502 99.398-99.397 99.398zM610.406 943.694c0-16.468-13.35-29.819-29.819-29.819h-109.33c-16.469 0-29.82 13.351-29.82 29.819v9.924c0 16.469 13.351 29.819 29.82 29.819h109.33c16.469 0 29.819-13.35 29.819-29.819v-9.924zM53.781 715.174c0 32.937 26.701 59.639 59.639 59.639h49.692c32.937 0 59.638-26.702 59.638-59.639V506.638c0-32.937-26.701-59.638-59.638-59.638H113.42c-32.938 0-59.639 26.701-59.639 59.638v208.536zM970.25 506.638c0-32.937-26.701-59.638-59.638-59.638H860.92c-32.938 0-59.639 26.701-59.639 59.638v208.536c0 32.937 26.701 59.639 59.639 59.639h49.692c32.937 0 59.638-26.702 59.638-59.639V506.638z" p-id="2500" fill="#cdcdcd"></path></svg>