<?xml version="1.0" standalone="no"?><!DOCTYPE svg PUBLIC "-//W3C//DTD SVG 1.1//EN" "http://www.w3.org/Graphics/SVG/1.1/DTD/svg11.dtd"><svg t="1593136587476" class="icon" viewBox="0 0 1024 1024" version="1.1" xmlns="http://www.w3.org/2000/svg" p-id="1540" xmlns:xlink="http://www.w3.org/1999/xlink" width="200" height="200"><defs><style type="text/css"></style></defs><path d="M345.6 277.333333h122.453333l-137.173333-192h-69.973333l-12.16 46.293334L204.16 64H122.666667L35.626667 362.666667h366.933333z m-51.84-149.333333h15.36l76.16 106.666667h-68.053333l-36.906667-55.466667zM154.453333 106.666667h26.666667l141.653333 213.333333H92.373333zM426.666667 571.306667l292.266666-177.92 182.613334 302.506666 36.48-21.333333-182.613334-303.36 221.226667-134.613333-210.56-158.08L426.666667 417.92z m42.666666-135.893334L769.92 134.826667l130.773333 97.92L469.333333 495.36zM983.68 834.346667H519.466667l42.666666-130.346667h-32.64l-22.4-111.36-108.586666 27.093333L341.333333 640l-91.093333-22.826667L161.92 704h-64l45.866667 130.346667H66.346667v42.666666h85.333333A62.08 62.08 0 0 0 149.333333 896a64 64 0 0 0 4.693334 23.68H66.346667v42.666667h917.333333v-42.666667H528.853333a58.24 58.24 0 0 0 0-42.666667h454.826667zM503.68 746.666667l-28.373333 85.333333H188.16l-30.08-85.333333z m-241.066667-82.986667L341.333333 682.666667l69.12-21.333334 64-16 11.52 58.666667H222.08z m-40.106666 213.333333A21.333333 21.333333 0 0 1 234.666667 896a21.333333 21.333333 0 0 1-42.666667 0 21.333333 21.333333 0 0 1 12.16-18.986667z m50.133333 42.666667A64 64 0 0 0 277.333333 896a62.08 62.08 0 0 0-3.2-18.986667h134.826667a58.24 58.24 0 0 0 0 42.666667zM490.666667 897.066667a21.333333 21.333333 0 1 1-21.333334-20.053334 21.333333 21.333333 0 0 1 21.333334 20.053334z" p-id="1541"></path></svg>