<?xml version="1.0" standalone="no"?><!DOCTYPE svg PUBLIC "-//W3C//DTD SVG 1.1//EN" "http://www.w3.org/Graphics/SVG/1.1/DTD/svg11.dtd"><svg t="1593267398882" class="icon" viewBox="0 0 1024 1024" version="1.1" xmlns="http://www.w3.org/2000/svg" p-id="2612" xmlns:xlink="http://www.w3.org/1999/xlink" width="200" height="200"><defs><style type="text/css"></style></defs><path d="M1016.986301 371.726027v-4.208219-2.805479c0-1.40274 0-2.805479-1.402739-2.80548 0-1.40274-1.40274-2.805479-1.40274-2.805479 0-1.40274-1.40274-1.40274-1.40274-2.80548s-1.40274-1.40274-1.40274-2.805479-1.40274-1.40274-2.805479-2.805479l-2.805479-2.80548c-1.40274-1.40274-1.40274-1.40274-2.80548-1.40274-1.40274-1.40274-1.40274-1.40274-2.805479-1.402739 0 0-1.40274 0-1.40274-1.40274L582.136986 122.038356c0-40.679452-33.665753-72.942466-72.942465-72.942466-40.679452 0-72.942466 32.263014-72.942466 72.942466L25.249315 342.268493s-1.40274 0-1.40274 1.40274c-1.40274 0-1.40274 1.40274-2.805479 1.40274s-1.40274 1.40274-2.80548 2.805479l-2.805479 2.80548s-1.40274 0-1.40274 1.402739-1.40274 1.40274-1.402739 2.80548-1.40274 1.40274-1.40274 2.805479-1.40274 1.40274-1.40274 2.80548-1.40274 2.805479-1.40274 2.805479v583.539726c0 19.638356 15.430137 35.068493 35.068494 35.068493h939.835616c19.638356 0 35.068493-15.430137 35.068493-35.068493v-575.123288h-1.40274zM468.515068 185.161644c11.221918 7.013699 25.249315 12.624658 40.679453 12.624657 15.430137 0 29.457534-4.208219 40.679452-12.624657l290.367123 152.89863H182.356164l286.158904-152.89863z m478.334247 728.021918h-869.69863v-504.986302h869.69863v504.986302z" p-id="2613"></path><path d="M213.216438 534.443836h590.553425c19.638356 0 35.068493-15.430137 35.068493-35.068494s-15.430137-35.068493-35.068493-35.068493H213.216438c-19.638356 0-35.068493 15.430137-35.068493 35.068493s15.430137 35.068493 35.068493 35.068494zM213.216438 868.29589h590.553425c19.638356 0 35.068493-15.430137 35.068493-35.068493s-15.430137-35.068493-35.068493-35.068493H213.216438c-19.638356 0-35.068493 15.430137-35.068493 35.068493s15.430137 35.068493 35.068493 35.068493zM213.216438 713.994521h590.553425c19.638356 0 35.068493-15.430137 35.068493-35.068494s-15.430137-35.068493-35.068493-35.068493H213.216438c-19.638356 0-35.068493 15.430137-35.068493 35.068493s15.430137 35.068493 35.068493 35.068494z" p-id="2614"></path></svg>