<?xml version="1.0" standalone="no"?><!DOCTYPE svg PUBLIC "-//W3C//DTD SVG 1.1//EN" "http://www.w3.org/Graphics/SVG/1.1/DTD/svg11.dtd"><svg t="1593239706639" class="icon" viewBox="0 0 1024 1024" version="1.1" xmlns="http://www.w3.org/2000/svg" p-id="4076" xmlns:xlink="http://www.w3.org/1999/xlink" width="200" height="200"><defs><style type="text/css"></style></defs><path d="M519.9 529.29c-114.46 0-207.58-93.12-207.58-207.58s93.12-207.58 207.58-207.58 207.57 93.12 207.57 207.58-93.11 207.58-207.57 207.58z m0-386.81c-98.83 0-179.23 80.4-179.23 179.23s80.4 179.23 179.23 179.23 179.23-80.4 179.23-179.23-80.4-179.23-179.23-179.23z" p-id="4077"></path><path d="M888 897.2a14.17 14.17 0 0 1-14.2-14.2c0-195.14-158.76-353.9-353.9-353.9S166 687.89 166 883a14.17 14.17 0 0 1-28.34 0 382.25 382.25 0 1 1 764.5 0A14.17 14.17 0 0 1 888 897.2z" p-id="4078"></path><path d="M550.51 629.1a30.62 30.62 0 1 1-30.61-30.62 30.61 30.61 0 0 1 30.61 30.62z" p-id="4079"></path><path d="M496.07 649.17l-27.33 153.32h102.32l-31.13-150.88-11.17-17.41-32.69 14.97z" p-id="4080"></path><path d="M468.74 802.49l50.45 51.09 51.87-51.09-42.3-33.03-60.02 33.03z" p-id="4081"></path></svg>