<?xml version="1.0" standalone="no"?><!DOCTYPE svg PUBLIC "-//W3C//DTD SVG 1.1//EN" "http://www.w3.org/Graphics/SVG/1.1/DTD/svg11.dtd"><svg t="1593357681943" class="icon" viewBox="0 0 1024 1024" version="1.1" xmlns="http://www.w3.org/2000/svg" p-id="2351" xmlns:xlink="http://www.w3.org/1999/xlink" width="200" height="200"><defs><style type="text/css"></style></defs><path d="M267.331 64.223h489.99c29.953 0 54.463 24.495 54.463 54.433v784.935c0 29.938-24.51 54.435-54.463 54.435h-489.99c-29.953 0-54.448-24.496-54.448-54.435V118.657c0-29.939 24.495-54.434 54.448-54.434zM644.8 731.137c13.824-20.198 27.675-40.396 41.513-60.594 5.73-8.996 3.208-18.292-5.014-27.789l-67.427-67.556c-10.858-9.168-20.04-10.271-28.077-5.687-14.668 8.738-29.337 17.463-44.005 26.201-63.157-67.255-84.888-127.978-84.801-192.396 14.883-8.351 29.781-16.687 44.679-25.024 7.978-4.67 11.631-13.178 9.124-27.145-8.264-30.741-16.53-61.452-24.796-92.193-4.112-11.861-10.9-18.68-21.558-18.221-24.41 1.876-48.818 3.767-73.243 5.658-21.588 1.289-25.569 8.838-25.841 24.696-4.241 225.441 80.405 349.924 245.123 470.094 13.881 7.676 22.39 8.019 34.323-10.044zM433.755 102.785v19.28h165.607v-19.28H433.755z m-144.493 56.711v662.417h446.601V159.496H289.262z" p-id="2352" fill="#e6e6e6"></path></svg>