<?xml version="1.0" standalone="no"?><!DOCTYPE svg PUBLIC "-//W3C//DTD SVG 1.1//EN" "http://www.w3.org/Graphics/SVG/1.1/DTD/svg11.dtd"><svg t="1593345645150" class="icon" viewBox="0 0 1024 1024" version="1.1" xmlns="http://www.w3.org/2000/svg" p-id="4877" xmlns:xlink="http://www.w3.org/1999/xlink" width="200" height="200"><defs><style type="text/css"></style></defs><path d="M640 64H384a64.19 64.19 0 0 0-64 64v768a64.19 64.19 0 0 0 64 64h256a64.19 64.19 0 0 0 64-64V128a64.19 64.19 0 0 0-64-64zM512 864a96 96 0 1 1 96-96 96 96 0 0 1-96 96z m0-256a96 96 0 1 1 96-96 96 96 0 0 1-96 96z m0-256a96 96 0 1 1 96-96 96 96 0 0 1-96 96zM768 160h192L768 352V160zM768 416h192L768 608V416zM768 672h192L768 864V672zM256 160H64l192 192V160zM256 416H64l192 192V416zM256 672H64l192 192V672z" p-id="4878"></path></svg>