<?xml version="1.0" standalone="no"?><!DOCTYPE svg PUBLIC "-//W3C//DTD SVG 1.1//EN" "http://www.w3.org/Graphics/SVG/1.1/DTD/svg11.dtd"><svg t="1593348719088" class="icon" viewBox="0 0 1024 1024" version="1.1" xmlns="http://www.w3.org/2000/svg" p-id="5617" xmlns:xlink="http://www.w3.org/1999/xlink" width="200" height="200"><defs><style type="text/css"></style></defs><path d="M380.56391111 163.32420741c47.69564445-20.26761482 98.304-30.58346667 150.49007407-30.58346666 151.46097778 0 289.57202963 89.4445037 351.9525926 227.79828147 6.67496297 14.68491852 21.23851852 23.54441482 36.40888889 23.54441481 5.5826963 0 11.04402963-1.21362963 16.384-3.51952592 20.14625185-9.10222222 29.00574815-32.768 20.02488888-52.91425186-75.12367408-166.87407408-241.99774815-274.76574815-424.77037037-274.76574814-62.98737778 0-124.15431111 12.50038518-181.80171851 36.89434074-20.26761482 8.61677037-29.73392592 32.03982222-21.11715556 52.4288 8.61677037 20.38897778 32.16118518 29.85528889 52.4288 21.11715556z m616.28112592 351.34577777v-7.40314073c0-1.69908148-0.12136297-3.51952592-0.36408888-5.21860742-0.36408889-8.00995555-0.72817778-16.01991111-1.45635556-23.9085037-1.94180741-21.9666963-21.23851852-38.22933333-43.20521481-36.40888888-21.9666963 1.94180741-38.22933333 21.23851852-36.40888889 43.2052148 0.72817778 9.46631111 1.33499259 18.93262222 1.45635556 28.5202963-1.21362963 123.42613333-38.10797037 242.60456297-106.79940742 344.79217778-12.37902222 18.32580741-7.40314075 43.08385185 10.92266667 55.46287408 6.79632592 4.49042963 14.68491852 6.79632592 22.20942222 6.79632592 12.86447408 0 25.48622222-6.18951111 33.25345186-17.59762963 75.73048889-112.74619259 117.11525925-243.93955555 120.14933333-379.74471111 0.12136297-1.45635555 0.24272592-2.79134815 0.24272592-4.36906667v-4.12634074zM288.44942222 508.35911111c2.18453333-88.4736 49.88017778-170.63632592 124.5184-214.20562963 19.05398518-11.16539259 25.48622222-35.68071111 14.32082963-54.61333333-11.16539259-19.05398518-35.68071111-25.48622222-54.61333333-14.32082963-47.81700741 27.91348148-88.23087408 68.20598518-116.9938963 116.50844445-27.79211852 46.72474075-43.81202963 99.88171852-46.8461037 154.49505185-0.9709037 3.51952592-1.45635555 7.28177778-1.45635555 11.04402963 0 78.88592592-33.86026667 154.25232592-93.20675556 206.92385185-16.50536297 14.68491852-17.96171852 39.92841482-3.2768 56.43377778 7.88859259 8.8594963 18.81125925 13.47128889 29.85528889 13.47128889 9.46631111 0 18.93262222-3.39816297 26.57848888-10.07312594 73.66731852-65.536 116.9938963-158.62139259 119.78524445-256.68266666 0.72817778-2.79134815 1.33499259-5.82542222 1.33499259-8.98085926zM782.63940741 705.93801482c-20.26761482-8.61677037-43.81202963 0.72817778-52.4288 20.99579259-28.03484445 65.77872592-68.08462222 124.88248889-118.81434074 175.85493334-15.65582222 15.65582222-15.53445925 40.89931852 0.12136296 56.55514073 7.76722963 7.76722963 17.96171852 11.65084445 28.1562074 11.65084444 10.31585185 0 20.51034075-3.88361482 28.27757038-11.7722074 58.0114963-58.13285925 103.52260741-125.73202963 135.68379259-200.8557037 8.61677037-20.26761482-0.72817778-43.69066667-20.99579259-52.4288z m0 0" p-id="5618"></path><path d="M756.54637037 650.47514075c-5.5826963 21.35988148 7.03905185 43.20521482 28.39893333 48.90927407 3.51952592 0.84954075 6.79632592 1.33499259 10.19448889 1.33499259 17.59762963 0 33.86026667-11.77220741 38.59342223-29.73392593 12.86447408-48.78791111 19.90352592-99.2749037 20.99579259-150.00462223 0.36408889-1.94180741 0.48545185-3.88361482 0.48545184-5.94678517 0-183.5008-145.02874075-332.89860741-323.31093333-332.89860741-22.08805925 0-39.92841482 17.84035555-39.92841481 39.92841481s17.84035555 39.92841482 39.92841481 39.92841482c131.072 0 238.2354963 108.1344 243.21137778 242.96865185 0 0.72817778-0.12136297 1.45635555-0.12136295 2.3058963 0 48.54518518-6.18951111 96.72628148-18.44717038 143.2082963z m0 0" p-id="5619"></path><path d="M712.37025185 533.11715555c1.69908148-4.49042963 2.66998518-9.34494815 2.66998518-14.32082963 0-102.30897778-81.67727408-185.32124445-182.1658074-185.32124444-47.93837037 0-93.32811852 18.81125925-127.55247408 53.03561482-28.64165925 28.5202963-46.8461037 65.05054815-52.67152592 104.73623703-2.18453333 4.97588148-3.39816297 10.43721482-3.39816296 16.14127408 0 46.48201482-9.10222222 91.62903703-26.82121482 134.10607407-8.61677037 20.38897778 1.09226667 43.81202963 21.35988148 52.30743704 5.09724445 2.18453333 10.31585185 3.15543703 15.53445926 3.15543703 15.65582222 0 30.4621037-9.22358518 36.77297778-24.51531852 19.41807408-46.23928889 30.34074075-95.0272 32.768-145.1501037 1.09226667-3.51952592 1.82044445-7.28177778 1.82044445-11.16539258 1.45635555-56.6765037 47.21019259-102.67306667 102.30897777-102.67306667 50.48699259 0 92.35721482 37.86524445 100.73125926 87.38133333-0.36408889 2.18453333-0.48545185 4.36906667-0.48545185 6.5536 0 150.24734815-67.8418963 290.17884445-186.04942222 383.87105184-17.3549037 13.71401482-20.14625185 38.83614815-6.5536 56.0696889 7.88859259 9.95176297 19.6608 15.17037037 31.31164444 15.17037037 8.61677037 0 17.47626667-2.79134815 24.75804445-8.61677037 65.90008889-52.18607408 120.39205925-119.54251852 157.52912592-194.54482963 35.19525925-71.1186963 54.7346963-147.21327408 58.13285926-226.22056297z m0 0" p-id="5620"></path><path d="M571.10376297 507.26684445c0-22.08805925-17.84035555-39.92841482-39.92841482-39.92841482s-39.92841482 17.84035555-39.92841482 39.92841482c0 135.44106667-66.26417778 263.35762963-177.31128888 342.00082963-17.96171852 12.74311111-22.20942222 37.74388148-9.58767408 55.7056 7.76722963 10.92266667 20.14625185 16.86945185 32.64663704 16.86945184 8.00995555 0 16.01991111-2.42725925 23.05896296-7.40314074 63.83691852-45.14702222 116.75117037-105.46441482 153.28142222-174.39857777 37.74388148-71.24005925 57.76877037-151.7037037 57.76877038-232.77416296zM349.98044445 755.09001482c12.74311111-17.96171852 8.61677037-42.84112592-9.34494815-55.7056-17.96171852-12.74311111-42.84112592-8.61677037-55.7056 9.34494815-22.08805925 30.94755555-48.90927408 58.0114963-79.61410371 80.22091851-17.84035555 12.98583703-21.72397037 37.86524445-8.85949629 55.82696297 7.76722963 10.67994075 20.02488889 16.50536297 32.40391111 16.50536296 8.13131852 0 16.384-2.54862222 23.42305184-7.52450371 37.74388148-27.54939259 70.63324445-60.68148148 97.6971852-98.66808888zM145.36248889 504.4754963c3.03407408-82.52681482 31.7970963-160.32047408 83.13362963-225.24965927 13.71401482-17.3549037 10.8013037-42.35567408-6.5536-56.06968888-17.3549037-13.71401482-42.35567408-10.8013037-56.06968889 6.5536C102.64272592 309.32385185 67.81155555 405.20059259 65.26293333 506.90275555c0 1.57771852 0 3.15543703 0.12136297 4.6117926-0.72817778 37.98660741-11.89357037 75.00231111-32.52527408 106.92077037-11.89357037 18.56853333-6.5536 43.20521482 12.01493333 55.22014815 6.67496297 4.36906667 14.19946667 6.43223703 21.60260742 6.43223703 13.1072 0 25.97167408-6.5536 33.7389037-18.3258074C129.70666667 615.76533333 145.48385185 562.36562963 145.48385185 507.50957037c0-1.09226667 0-2.06317037-0.12136296-3.03407407z m0 0" p-id="5621"></path></svg>