<?xml version="1.0" standalone="no"?><!DOCTYPE svg PUBLIC "-//W3C//DTD SVG 1.1//EN" "http://www.w3.org/Graphics/SVG/1.1/DTD/svg11.dtd"><svg t="1593255274936" class="icon" viewBox="0 0 1024 1024" version="1.1" xmlns="http://www.w3.org/2000/svg" p-id="3038" xmlns:xlink="http://www.w3.org/1999/xlink" width="200" height="200"><defs><style type="text/css"></style></defs><path d="M800 576H448V224c0-19.2 12.8-32 32-32s32 12.8 32 32v288h288c19.2 0 32 12.8 32 32s-12.8 32-32 32zM1024 473.6v-6.4c0-16-16-28.8-35.2-25.6-19.2 0-32 19.2-28.8 35.2v57.6c0 19.2 12.8 32 28.8 35.2h3.2c16 0 32-12.8 32-28.8V512v-38.4z m-67.2 217.6c-16-6.4-35.2 0-41.6 16-9.6 19.2-19.2 35.2-28.8 51.2-9.6 16-6.4 35.2 9.6 44.8 6.4 3.2 12.8 6.4 16 6.4 9.6 0 19.2-6.4 25.6-12.8 12.8-19.2 22.4-38.4 32-57.6 12.8-19.2 3.2-38.4-12.8-48z m-147.2 198.4c-9.6-16-28.8-19.2-44.8-9.6-16 9.6-32 19.2-51.2 28.8-16 6.4-22.4 25.6-12.8 41.6 6.4 12.8 16 19.2 28.8 19.2 6.4 0 9.6 0 16-3.2 19.2-9.6 38.4-22.4 57.6-35.2 12.8-6.4 16-25.6 6.4-41.6z" p-id="3039"></path><path d="M969.6 310.4L899.2 288l-185.6-60.8L790.4 160c-80-64-176-96-278.4-96C265.6 64 64 265.6 64 512s201.6 448 448 448c19.2 0 32 12.8 32 32s-12.8 32-32 32C230.4 1024 0 793.6 0 512S230.4 0 512 0c118.4 0 233.6 41.6 326.4 118.4l73.6-67.2 44.8 211.2 12.8 48z" p-id="3040"></path></svg>